<?xml version="1.0"?>
<svg xmlns="http://www.w3.org/2000/svg" xmlns:xlink="http://www.w3.org/1999/xlink" xmlns:svgjs="http://svgjs.com/svgjs" version="1.1" width="512" height="512" x="0" y="0" viewBox="0 0 512 512" style="enable-background:new 0 0 512 512" xml:space="preserve"><g><g xmlns="http://www.w3.org/2000/svg"><path d="m143 224c0-8.284-6.716-15-15-15h-80c-8.284 0-15 6.716-15 15v49h110z" fill="#000000" data-original="#000000" style=""/><path d="m359 303v144h138c8.284 0 15-6.716 15-15v-114c0-8.284-6.716-15-15-15z" fill="#000000" data-original="#000000" style=""/><path d="m0 318v114c0 8.284 6.716 15 15 15h314v-144h-314c-8.284 0-15 6.716-15 15z" fill="#000000" data-original="#000000" style=""/><path d="m479 128v-48c0-8.284-6.716-15-15-15h-80c-8.284 0-15 6.716-15 15v48z" fill="#000000" data-original="#000000" style=""/><path d="m177 173v100h335v-100c0-8.284-6.716-15-15-15h-305c-8.284 0-15 6.716-15 15z" fill="#000000" data-original="#000000" style=""/><path d="m319 128v-48c0-8.284-6.716-15-15-15h-80c-8.284 0-15 6.716-15 15v48z" fill="#000000" data-original="#000000" style=""/></g></g></svg>
